<svg xmlns="http://www.w3.org/2000/svg" viewBox="0 0 600 700" fill="none">
  <!-- Simplified India outline (Official boundaries including J&K, Ladakh) -->
  <path d="M295 45 L310 50 L325 48 L340 55 L355 52 L365 58 L380 55 L390 60 L395 68 L400 75 L410 80 L415 88 L420 95 L425 100 L430 108 L428 115 L432 125 L435 132 L440 140 L445 148 L450 155 L455 162 L458 170 L462 178 L465 185 L468 192 L472 200 L475 208 L478 215 L480 222 L483 230 L485 238 L488 245 L490 252 L492 260 L494 268 L496 275 L498 282 L500 290 L502 298 L504 305 L505 312 L506 320 L508 328 L509 335 L510 342 L511 350 L512 358 L510 365 L508 372 L505 380 L502 388 L498 395 L494 402 L490 408 L485 415 L480 422 L475 428 L470 435 L465 440 L460 445 L455 450 L448 455 L440 460 L432 465 L425 468 L418 472 L410 475 L402 478 L395 480 L388 482 L380 484 L372 486 L365 488 L358 490 L350 492 L342 495 L335 498 L328 502 L322 508 L318 515 L315 522 L312 530 L310 538 L308 545 L305 552 L302 558 L298 565 L295 570 L290 575 L285 580 L280 585 L275 588 L270 590 L265 592 L260 594 L255 595 L250 596 L245 597 L240 598 L235 595 L230 590 L225 585 L220 580 L215 575 L210 570 L205 565 L200 558 L195 550 L192 542 L190 535 L188 528 L185 520 L182 512 L180 505 L178 498 L175 490 L172 482 L170 475 L168 468 L165 460 L162 452 L160 445 L158 438 L155 430 L152 422 L148 415 L145 408 L142 400 L140 392 L138 385 L135 378 L132 370 L130 362 L128 355 L125 348 L122 340 L120 332 L118 325 L115 318 L112 310 L110 302 L108 295 L106 288 L104 280 L102 272 L100 265 L98 258 L96 250 L95 242 L94 235 L93 228 L92 220 L91 212 L92 205 L93 198 L95 190 L98 182 L100 175 L103 168 L105 160 L108 152 L112 145 L115 138 L118 130 L122 122 L125 115 L128 108 L132 100 L138 92 L145 85 L152 80 L158 75 L165 72 L172 68 L180 65 L188 62 L195 60 L202 58 L210 56 L218 54 L225 52 L232 50 L240 48 L248 46 L255 45 L262 44 L270 43 L278 44 L285 44 L295 45Z" 
    fill="#e8f5e9" stroke="#006e2f" stroke-width="2"/>
  
  <!-- State boundaries (simplified) -->
  <!-- Uttar Pradesh highlighted -->
  <path d="M280 180 L320 175 L350 180 L370 195 L380 215 L375 240 L360 260 L340 270 L310 275 L285 270 L265 255 L255 235 L258 210 L268 192 L280 180Z" 
    fill="#c8e6c9" stroke="#006e2f" stroke-width="1.5" opacity="0.8"/>
  
  <!-- UP Label -->
  <text x="310" y="230" font-family="sans-serif" font-size="12" font-weight="bold" fill="#006e2f" text-anchor="middle">Uttar Pradesh</text>
  
  <!-- City dots -->
  <circle cx="295" cy="210" r="5" fill="#006e2f" stroke="#fff" stroke-width="1.5"/>
  <text x="295" y="200" font-family="sans-serif" font-size="9" fill="#333" text-anchor="middle">Kanpur</text>
  
  <circle cx="330" cy="195" r="4" fill="#3755c3" stroke="#fff" stroke-width="1.5"/>
  <text x="330" y="185" font-family="sans-serif" font-size="9" fill="#333" text-anchor="middle">Noida</text>
  
  <circle cx="340" cy="205" r="4" fill="#795900" stroke="#fff" stroke-width="1.5"/>
  <text x="355" y="205" font-family="sans-serif" font-size="9" fill="#333" text-anchor="start">Ghaziabad</text>
  
  <!-- Title -->
  <text x="300" y="680" font-family="sans-serif" font-size="11" fill="#666" text-anchor="middle">Republic of India — Official Boundaries</text>
</svg>
